<?xml version="1.0" standalone="no"?>
<!DOCTYPE svg PUBLIC "-//W3C//DTD SVG 20010904//EN"
 "http://www.w3.org/TR/2001/REC-SVG-20010904/DTD/svg10.dtd">
<svg version="1.0" xmlns="http://www.w3.org/2000/svg"
 width="285.000000pt" height="285.000000pt" viewBox="0 0 285.000000 285.000000"
 preserveAspectRatio="xMidYMid meet">
<metadata>
Created by potrace 1.11, written by Peter Selinger 2001-2013
</metadata>
<g transform="translate(0.000000,285.000000) scale(0.100000,-0.100000)"
fill="#000000" stroke="none">
<path d="M1785 2233 c-16 -14 -57 -51 -90 -82 -34 -31 -105 -96 -159 -146 -54
-49 -115 -106 -136 -125 -21 -19 -78 -71 -126 -115 -48 -44 -99 -91 -113 -104
-14 -13 -66 -60 -115 -105 -49 -44 -105 -96 -125 -115 -20 -18 -74 -68 -120
-110 -46 -42 -99 -89 -116 -106 -18 -16 -72 -66 -121 -110 -48 -44 -102 -93
-120 -110 -36 -33 -191 -176 -234 -215 -158 -143 -200 -183 -200 -189 0 -7
2660 -9 2661 -1 0 3 2 12 4 20 1 8 10 65 19 125 23 147 24 153 31 205 7 48 8
56 25 165 7 39 13 79 14 90 10 71 19 133 22 150 3 11 7 40 9 65 3 25 7 52 10
60 2 8 7 38 10 65 3 28 12 83 19 123 7 40 10 75 7 77 -3 1 -75 -26 -160 -61
-85 -35 -161 -65 -169 -66 -8 -2 -16 6 -18 17 -4 28 -17 107 -20 125 -1 8 -6
35 -10 60 -4 25 -8 50 -10 55 -2 11 -7 42 -24 139 -5 32 -11 60 -12 62 -2 1
-46 -24 -98 -57 -52 -33 -102 -62 -110 -66 -8 -4 -50 -29 -92 -55 -56 -34 -79
-44 -85 -35 -4 6 -51 97 -104 201 -53 105 -100 191 -105 193 -5 1 -22 -9 -39
-24z"/>
</g>
</svg>
